<svg width="765" height="102" viewBox="0 0 765 102" fill="none" xmlns="http://www.w3.org/2000/svg">
<path d="M254.732 98L227.217 30.5455L237.967 32.7091L213.012 98H191L234 0L277 98H254.732Z" fill="white"/>
<path d="M363.76 3.79204H427.248V21.712H404.336V98H385.776V21.712H363.76V3.79204Z" fill="white"/>
<path d="M138.704 3.79204C144.592 3.79204 149.84 4.56004 154.448 6.09604C159.056 7.54671 162.896 9.68004 165.968 12.496C169.125 15.2267 171.515 18.5547 173.136 22.48C174.757 26.32 175.568 30.672 175.568 35.536C175.568 39.376 174.971 43.216 173.776 47.056C172.667 50.896 170.789 54.3947 168.144 57.552C165.584 60.7094 162.171 63.2694 157.904 65.232C153.637 67.1094 148.347 68.048 142.032 68.048H128.72V98H110.16V3.79204H138.704ZM141.904 50.128C144.72 50.128 147.067 49.6587 148.944 48.72C150.821 47.7814 152.272 46.5867 153.296 45.136C154.405 43.6854 155.173 42.192 155.6 40.656C156.112 39.0347 156.368 37.5414 156.368 36.176C156.368 35.152 156.197 33.872 155.856 32.336C155.6 30.7147 155.003 29.0934 154.064 27.472C153.125 25.8507 151.675 24.4854 149.712 23.376C147.835 22.2667 145.275 21.712 142.032 21.712H128.72V50.128H141.904ZM159.312 61.648L182.608 98H160.976L137.168 62.16L159.312 61.648Z" fill="white"/>
<path d="M439.4 51.024C439.4 44.5387 440.637 38.3947 443.112 32.592C445.587 26.7894 449 21.6694 453.352 17.232C457.789 12.7094 462.909 9.16804 468.712 6.60804C474.515 4.04804 480.744 2.76804 487.4 2.76804C493.971 2.76804 500.158 4.04804 505.96 6.60804C511.763 9.16804 516.883 12.7094 521.32 17.232C525.843 21.6694 529.341 26.7894 531.816 32.592C534.376 38.3947 535.656 44.5387 535.656 51.024C535.656 57.68 534.376 63.9094 531.816 69.712C529.341 75.5147 525.843 80.6347 521.32 85.072C516.883 89.424 511.763 92.8374 505.96 95.312C500.158 97.7867 493.971 99.024 487.4 99.024C480.744 99.024 474.515 97.7867 468.712 95.312C462.909 92.8374 457.789 89.424 453.352 85.072C449 80.6347 445.587 75.5147 443.112 69.712C440.637 63.9094 439.4 57.68 439.4 51.024ZM458.6 51.024C458.6 55.2054 459.326 59.1307 460.776 62.8C462.312 66.384 464.403 69.584 467.048 72.4C469.779 75.1307 472.893 77.264 476.392 78.8C479.976 80.336 483.859 81.104 488.04 81.104C492.051 81.104 495.763 80.336 499.176 78.8C502.675 77.264 505.704 75.1307 508.264 72.4C510.824 69.584 512.829 66.384 514.28 62.8C515.731 59.1307 516.456 55.2054 516.456 51.024C516.456 46.7574 515.688 42.7894 514.152 39.12C512.702 35.4507 510.653 32.2507 508.008 29.52C505.448 26.704 502.419 24.528 498.92 22.992C495.422 21.456 491.624 20.688 487.528 20.688C483.432 20.688 479.635 21.456 476.136 22.992C472.638 24.528 469.565 26.704 466.92 29.52C464.275 32.2507 462.227 35.4507 460.776 39.12C459.326 42.7894 458.6 46.7574 458.6 51.024Z" fill="white"/>
<path d="M638.512 101.84L567.088 37.328L572.592 40.4L572.976 98H554.16V0.08004H554.928L624.816 64.336L620.72 62.544L620.336 3.79204H639.024V101.84H638.512Z" fill="white"/>
<path d="M664.16 3.79204H682.72V98H664.16V3.79204Z" fill="white"/>
<path d="M757.464 26.576C753.88 24.6134 750.211 22.992 746.456 21.712C742.787 20.432 739.331 19.792 736.088 19.792C732.077 19.792 728.92 20.6027 726.616 22.224C724.312 23.8454 723.16 26.2774 723.16 29.52C723.16 31.7387 724.013 33.744 725.72 35.536C727.512 37.2427 729.773 38.7787 732.504 40.144C735.32 41.5094 738.221 42.7467 741.208 43.856C743.939 44.88 746.627 46.1174 749.272 47.568C752.003 48.9334 754.435 50.6827 756.568 52.816C758.702 54.864 760.408 57.4667 761.688 60.624C762.968 63.696 763.608 67.4934 763.608 72.016C763.608 76.7947 762.371 81.232 759.896 85.328C757.422 89.424 753.795 92.752 749.016 95.312C744.237 97.7867 738.349 99.024 731.352 99.024C727.768 99.024 724.099 98.6827 720.344 98C716.675 97.232 713.048 96.1227 709.464 94.672C705.88 93.136 702.424 91.216 699.096 88.912L707.288 74.448C709.507 76.0694 711.896 77.52 714.456 78.8C717.102 79.9947 719.747 80.9334 722.392 81.616C725.037 82.2987 727.469 82.64 729.688 82.64C731.907 82.64 734.125 82.3414 736.344 81.744C738.648 81.0614 740.525 79.952 741.976 78.416C743.512 76.8801 744.28 74.7467 744.28 72.016C744.28 70.1387 743.64 68.432 742.36 66.896C741.166 65.36 739.501 63.952 737.368 62.672C735.32 61.392 733.059 60.2827 730.584 59.344C727.683 58.2347 724.696 56.9547 721.624 55.504C718.552 54.0534 715.651 52.304 712.92 50.256C710.275 48.1227 708.099 45.52 706.392 42.448C704.771 39.2907 703.96 35.4507 703.96 30.928C703.96 25.4667 705.155 20.7307 707.544 16.72C710.019 12.7094 713.475 9.55204 717.912 7.24804C722.349 4.85871 727.469 3.53604 733.272 3.28004C740.867 3.28004 747.011 4.17604 751.704 5.96804C756.483 7.76004 760.75 9.89338 764.504 12.368L757.464 26.576Z" fill="white"/>
<path d="M293.16 3.79204H352.04V21.712H311.72V43.088H346.664V61.008H311.72V98H293.16V3.79204Z" fill="white"/>
<path d="M48 2C74.5097 2 96 23.4903 96 50C96 76.5097 74.5097 98 48 98C21.4903 98 0 76.5097 0 50C0 23.4903 21.4903 2 48 2Z" fill="#A30000"/>
<path fill-rule="evenodd" clip-rule="evenodd" d="M27.8712 46.1642C30.1516 42.2144 35.2027 40.8604 39.1525 43.1408L89.214 72.0441C89.5886 72.2604 89.9397 72.502 90.2667 72.7648C87.6107 77.6857 84.1196 82.088 79.9845 85.7863L30.8937 57.4445C26.9443 55.1641 25.5912 50.1138 27.8712 46.1642Z" fill="white"/>
<g filter="url(#filter0_d_700_2)">
<path fill-rule="evenodd" clip-rule="evenodd" d="M79.7814 14.0332C83.9461 17.716 87.4681 22.1081 90.1535 27.0244C89.8586 27.2531 89.5462 27.4664 89.214 27.6582L39.1525 56.5615C35.2027 58.8419 30.1516 57.4888 27.8712 53.5391C25.5908 49.5893 26.9449 44.5382 30.8947 42.2578L79.7814 14.0332Z" fill="white"/>
</g>
<defs>
<filter id="filter0_d_700_2" x="22.7637" y="14.0332" width="71.3906" height="51.6367" filterUnits="userSpaceOnUse" color-interpolation-filters="sRGB">
<feFlood flood-opacity="0" result="BackgroundImageFix"/>
<feColorMatrix in="SourceAlpha" type="matrix" values="0 0 0 0 0 0 0 0 0 0 0 0 0 0 0 0 0 0 127 0" result="hardAlpha"/>
<feOffset dy="4"/>
<feGaussianBlur stdDeviation="2"/>
<feComposite in2="hardAlpha" operator="out"/>
<feColorMatrix type="matrix" values="0 0 0 0 0 0 0 0 0 0 0 0 0 0 0 0 0 0 0.25 0"/>
<feBlend mode="normal" in2="BackgroundImageFix" result="effect1_dropShadow_700_2"/>
<feBlend mode="normal" in="SourceGraphic" in2="effect1_dropShadow_700_2" result="shape"/>
</filter>
</defs>
</svg>
